<?xml version="1.0" encoding="UTF-8" standalone="no"?>
<svg
   xmlns:dc="http://purl.org/dc/elements/1.1/"
   xmlns:cc="http://creativecommons.org/ns#"
   xmlns:rdf="http://www.w3.org/1999/02/22-rdf-syntax-ns#"
   xmlns:svg="http://www.w3.org/2000/svg"
   xmlns="http://www.w3.org/2000/svg"
   xmlns:xlink="http://www.w3.org/1999/xlink"
   xmlns:sodipodi="http://sodipodi.sourceforge.net/DTD/sodipodi-0.dtd"
   xmlns:inkscape="http://www.inkscape.org/namespaces/inkscape"
   viewBox="0 0 22 22"
   version="1.1"
   id="svg9"
   sodipodi:docname="system-suspend.svg"
   inkscape:version="0.92.4 (5da689c313, 2019-01-14)">
  <metadata
     id="metadata15">
    <rdf:RDF>
      <cc:Work
         rdf:about="">
        <dc:format>image/svg+xml</dc:format>
        <dc:type
           rdf:resource="http://purl.org/dc/dcmitype/StillImage" />
      </cc:Work>
    </rdf:RDF>
  </metadata>
  <defs
     id="defs13">
    <linearGradient
       inkscape:collect="always"
       id="linearGradient829">
      <stop
         style="stop-color:#ff6600;stop-opacity:1"
         offset="0"
         id="stop825" />
      <stop
         style="stop-color:#ffff00;stop-opacity:1"
         offset="1"
         id="stop827" />
    </linearGradient>
    <linearGradient
       inkscape:collect="always"
       xlink:href="#linearGradient829"
       id="linearGradient831"
       x1="3.3728814"
       y1="4.3465338"
       x2="17.755558"
       y2="18.702465"
       gradientUnits="userSpaceOnUse" />
    <linearGradient
       inkscape:collect="always"
       xlink:href="#linearGradient829"
       id="linearGradient839"
       x1="10"
       y1="6.5"
       x2="19"
       y2="6.5"
       gradientUnits="userSpaceOnUse" />
  </defs>
  <sodipodi:namedview
     pagecolor="#ffffff"
     bordercolor="#666666"
     borderopacity="1"
     objecttolerance="10"
     gridtolerance="10"
     guidetolerance="10"
     inkscape:pageopacity="0"
     inkscape:pageshadow="2"
     inkscape:window-width="1920"
     inkscape:window-height="1017"
     id="namedview11"
     showgrid="false"
     inkscape:zoom="10.727273"
     inkscape:cx="11"
     inkscape:cy="11"
     inkscape:window-x="0"
     inkscape:window-y="0"
     inkscape:window-maximized="1"
     inkscape:current-layer="svg9" />
  <style
     type="text/css"
     id="current-color-scheme">
        .ColorScheme-Text {
            color:#eff0f1;
        }
    </style>
  <g
     class="ColorScheme-Text"
     fill="currentColor"
     id="g7">
    <path
       d="M7.047 4.049A7.995 8 0 0 0 3 11a7.995 8 0 0 0 7.994 8 7.995 8 0 0 0 6.938-4.043 7.995 8 0 0 0 .01-.006l-.739-.738a6.996 7 0 0 1-.004.006 6.996 7 0 0 1-3.207.781 6.996 7 0 0 1-6.994-7 6.996 7 0 0 1 .785-3.213zM6.303 5.82A7.995 8 0 0 0 5.998 8a7.995 8 0 0 0 7.994 8 7.995 8 0 0 0 2.188-.313A6.996 7 0 0 1 10.994 18 6.996 7 0 0 1 4 11a6.996 7 0 0 1 2.303-5.18z"
       id="path3"
       style="fill-opacity:1;fill:url(#linearGradient831)" />
    <path
       d="M10 6v1h2.293l-2 2-.293.293V10h4V9h-2.293l2-2L14 6.707V6h-.707zm5-3v1h2.293l-2 2-.293.293V7h4V6h-2.293l2-2L19 3.707V3h-.707z"
       id="path5"
       style="fill-opacity:1.0;fill:url(#linearGradient839)" />
  </g>
</svg>
