<?xml version="1.0" encoding="UTF-8" standalone="no"?>
<svg
   xmlns:dc="http://purl.org/dc/elements/1.1/"
   xmlns:cc="http://creativecommons.org/ns#"
   xmlns:rdf="http://www.w3.org/1999/02/22-rdf-syntax-ns#"
   xmlns:svg="http://www.w3.org/2000/svg"
   xmlns="http://www.w3.org/2000/svg"
   xmlns:xlink="http://www.w3.org/1999/xlink"
   xmlns:sodipodi="http://sodipodi.sourceforge.net/DTD/sodipodi-0.dtd"
   xmlns:inkscape="http://www.inkscape.org/namespaces/inkscape"
   viewBox="0 0 22 22"
   version="1.1"
   id="svg9"
   sodipodi:docname="system-suspend-hibernate.svg"
   inkscape:version="0.92.4 (5da689c313, 2019-01-14)">
  <metadata
     id="metadata15">
    <rdf:RDF>
      <cc:Work
         rdf:about="">
        <dc:format>image/svg+xml</dc:format>
        <dc:type
           rdf:resource="http://purl.org/dc/dcmitype/StillImage" />
      </cc:Work>
    </rdf:RDF>
  </metadata>
  <defs
     id="defs13">
    <linearGradient
       inkscape:collect="always"
       id="linearGradient829">
      <stop
         style="stop-color:#00ff66;stop-opacity:1"
         offset="0"
         id="stop825" />
      <stop
         style="stop-color:#0066ff;stop-opacity:1"
         offset="1"
         id="stop827" />
    </linearGradient>
    <linearGradient
       inkscape:collect="always"
       xlink:href="#linearGradient829"
       id="linearGradient831"
       x1="2.1864407"
       y1="3.1305509"
       x2="20.186441"
       y2="19.071228"
       gradientUnits="userSpaceOnUse" />
    <linearGradient
       inkscape:collect="always"
       xlink:href="#linearGradient829"
       id="linearGradient839"
       x1="11"
       y1="7"
       x2="15"
       y2="7"
       gradientUnits="userSpaceOnUse" />
  </defs>
  <sodipodi:namedview
     pagecolor="#ffffff"
     bordercolor="#666666"
     borderopacity="1"
     objecttolerance="10"
     gridtolerance="10"
     guidetolerance="10"
     inkscape:pageopacity="0"
     inkscape:pageshadow="2"
     inkscape:window-width="1920"
     inkscape:window-height="1017"
     id="namedview11"
     showgrid="false"
     inkscape:zoom="10.727273"
     inkscape:cx="11"
     inkscape:cy="11"
     inkscape:window-x="0"
     inkscape:window-y="0"
     inkscape:window-maximized="1"
     inkscape:current-layer="svg9" />
  <style
     type="text/css"
     id="current-color-scheme">
        .ColorScheme-Text {
            color:#eff0f1;
        }
    </style>
  <g
     class="ColorScheme-Text"
     fill="currentColor"
     id="g7">
    <path
       d="M6.79 3.707l-.868.5 1.646 2.85-2.248-.602-.26.967 3.215.861L9.845 11H6.708L4.354 8.646l-.708.708L5.293 11H2v1h3.293l-1.647 1.646.708.708L6.707 12H9.84l-1.567 2.713-3.214.861.257.967 2.25-.604L5.92 18.79l.865.5 1.647-2.852.603 2.25.965-.26-.861-3.216L10.994 12H11l1.857 3.219-.86 3.215.966.257.601-2.248 1.647 2.852.867-.5-1.646-2.852 2.248.602.26-.965-3.215-.861L12.155 12h3.138l2.353 2.354.708-.708L16.707 12H20v-1h-3.293l1.647-1.646-.051-.06H17L15.293 11H11v-.002l-.004-.002-1.853-3.213.86-3.215-.966-.26-.601 2.25zM16 3v1h2.293l-2 2-.293.293V7h4V6h-2.293l2-2L20 3.707V3h-.707z"
       id="path3"
       style="fill-opacity:1;fill:url(#linearGradient831)" />
    <path
       d="M11 5v1h2.293l-2 2-.293.293V9h4V8h-2.293l2-2L15 5.707V5h-.707z"
       id="path5"
       style="fill-opacity:1.0;fill:url(#linearGradient839)" />
  </g>
</svg>
