<?xml version="1.0" encoding="UTF-8" standalone="no"?>
<svg
   xmlns:dc="http://purl.org/dc/elements/1.1/"
   xmlns:cc="http://creativecommons.org/ns#"
   xmlns:rdf="http://www.w3.org/1999/02/22-rdf-syntax-ns#"
   xmlns:svg="http://www.w3.org/2000/svg"
   xmlns="http://www.w3.org/2000/svg"
   xmlns:xlink="http://www.w3.org/1999/xlink"
   xmlns:sodipodi="http://sodipodi.sourceforge.net/DTD/sodipodi-0.dtd"
   xmlns:inkscape="http://www.inkscape.org/namespaces/inkscape"
   viewBox="0 0 22 22"
   version="1.1"
   id="svg6"
   sodipodi:docname="system-users.svg"
   inkscape:version="0.92.4 (5da689c313, 2019-01-14)">
  <metadata
     id="metadata10">
    <rdf:RDF>
      <cc:Work
         rdf:about="">
        <dc:format>image/svg+xml</dc:format>
        <dc:type
           rdf:resource="http://purl.org/dc/dcmitype/StillImage" />
      </cc:Work>
    </rdf:RDF>
  </metadata>
  <sodipodi:namedview
     pagecolor="#ffffff"
     bordercolor="#666666"
     borderopacity="1"
     objecttolerance="10"
     gridtolerance="10"
     guidetolerance="10"
     inkscape:pageopacity="0"
     inkscape:pageshadow="2"
     inkscape:window-width="1920"
     inkscape:window-height="1017"
     id="namedview8"
     showgrid="false"
     inkscape:zoom="10.727273"
     inkscape:cx="-5.7330506"
     inkscape:cy="11"
     inkscape:window-x="0"
     inkscape:window-y="0"
     inkscape:window-maximized="1"
     inkscape:current-layer="svg6" />
  <defs
     id="defs3051">
    <linearGradient
       inkscape:collect="always"
       id="linearGradient821">
      <stop
         style="stop-color:#00ccff;stop-opacity:1"
         offset="0"
         id="stop817" />
      <stop
         style="stop-color:#00ff00;stop-opacity:1"
         offset="1"
         id="stop819" />
    </linearGradient>
    <style
       type="text/css"
       id="current-color-scheme">
      .ColorScheme-Text {
        color:#eff0f1;
      }
      </style>
    <linearGradient
       inkscape:collect="always"
       xlink:href="#linearGradient821"
       id="linearGradient823"
       x1="2.9067798"
       y1="3.1694915"
       x2="18.813559"
       y2="18.550848"
       gradientUnits="userSpaceOnUse" />
  </defs>
  <path
     style="color:#eff0f1;fill:url(#linearGradient823);fill-opacity:1;stroke:none"
     d="m 14,3 c -1.662,0 -3,1.338 -3,3 0,1.662 1.338,3 3,3 1.662,0 3,-1.338 3,-3 C 17,4.338 15.662,3 14,3 Z M 8,6 C 6.338,6 5,7.338 5,9 c 0,1.662 1.338,3 3,3 1.662,0 3,-1.338 3,-3 C 11,7.338 9.662,6 8,6 Z m 6,4 c -0.646346,0 -1.255994,0.134157 -1.818359,0.361328 l 0.455078,0.914063 C 13.064535,11.114885 13.514485,11 14,11 c 2.21602,0 4,1.78398 4,4 h -3.5 l 0.5,1 h 4 v -1 c 0,-2.77002 -2.22998,-5 -5,-5 z m -6,3 c -2.770017,0 -5,2.229983 -5,5 v 1 h 10 v -1 c 0,-2.770017 -2.229983,-5 -5,-5 z m 0,1 c 2.216017,0 4,1.783983 4,4 H 4 c 0,-2.216017 1.783983,-4 4,-4 z"
     class="ColorScheme-Text"
     id="path4"
     inkscape:connector-curvature="0" />
</svg>
