<?xml version="1.0" encoding="UTF-8" standalone="no"?>
<svg
   xmlns:dc="http://purl.org/dc/elements/1.1/"
   xmlns:cc="http://creativecommons.org/ns#"
   xmlns:rdf="http://www.w3.org/1999/02/22-rdf-syntax-ns#"
   xmlns:svg="http://www.w3.org/2000/svg"
   xmlns="http://www.w3.org/2000/svg"
   xmlns:xlink="http://www.w3.org/1999/xlink"
   xmlns:sodipodi="http://sodipodi.sourceforge.net/DTD/sodipodi-0.dtd"
   xmlns:inkscape="http://www.inkscape.org/namespaces/inkscape"
   version="1.1"
   viewBox="0 0 22 22"
   id="svg7"
   sodipodi:docname="system-reboot.svg"
   inkscape:version="0.92.4 (5da689c313, 2019-01-14)">
  <metadata
     id="metadata11">
    <rdf:RDF>
      <cc:Work
         rdf:about="">
        <dc:format>image/svg+xml</dc:format>
        <dc:type
           rdf:resource="http://purl.org/dc/dcmitype/StillImage" />
      </cc:Work>
    </rdf:RDF>
  </metadata>
  <sodipodi:namedview
     pagecolor="#ffffff"
     bordercolor="#666666"
     borderopacity="1"
     objecttolerance="10"
     gridtolerance="10"
     guidetolerance="10"
     inkscape:pageopacity="0"
     inkscape:pageshadow="2"
     inkscape:window-width="1920"
     inkscape:window-height="1017"
     id="namedview9"
     showgrid="false"
     inkscape:zoom="10.727273"
     inkscape:cx="-39.199153"
     inkscape:cy="11"
     inkscape:window-x="0"
     inkscape:window-y="0"
     inkscape:window-maximized="1"
     inkscape:current-layer="svg7" />
  <defs
     id="defs3">
    <linearGradient
       inkscape:collect="always"
       id="linearGradient822">
      <stop
         style="stop-color:#00a0a0;stop-opacity:1"
         offset="0"
         id="stop818" />
      <stop
         style="stop-color:#ff6600;stop-opacity:1"
         offset="1"
         id="stop820" />
    </linearGradient>
    <style
       type="text/css"
       id="current-color-scheme">.ColorScheme-Text {
        color:#eff0f1;
      }</style>
    <linearGradient
       inkscape:collect="always"
       xlink:href="#linearGradient822"
       id="linearGradient824"
       x1="3.2796609"
       y1="3.1694915"
       x2="19.09322"
       y2="19.20339"
       gradientUnits="userSpaceOnUse" />
  </defs>
  <path
     class="ColorScheme-Text"
     d="m 19,11 c 0,1.441714 -0.382922,2.789289 -1.044922,3.955078 l -0.738281,-0.738281 c 0,0 0.002,-0.002 0.002,-0.002 l -2.777341,-2.77925 0.707032,-0.707031 2.480468,2.482422 C 17.861583,12.515315 18,11.776088 18,11 18,7.12203 14.878,4 11,4 9.8375,4 8.746103,4.285828 7.783203,4.783203 L 7.044922,4.044922 C 8.210722,3.382871 9.5583,3 11,3 c 4.432,0 8,3.568034 8,8 z m -4.044922,6.955078 C 13.789278,18.617129 12.4417,19 11,19 6.568,19 3,15.431966 3,11 3,9.558286 3.382922,8.210711 4.044922,7.044922 l 0.683594,0.683594 0.002,-0.00195 2.828125,2.828126 L 6.851609,11.261723 4.373094,8.783207 C 4.139126,9.480503 4,10.221736 4,11 c 0,3.87797 3.122,7 7,7 1.1625,0 2.253897,-0.285829 3.216797,-0.783203 z"
     id="path5"
     style="color:#eff0f1;fill:url(#linearGradient824);fill-opacity:1"
     inkscape:connector-curvature="0" />
</svg>
