<?xml version="1.0" encoding="UTF-8" standalone="no"?>
<svg
   xmlns:dc="http://purl.org/dc/elements/1.1/"
   xmlns:cc="http://creativecommons.org/ns#"
   xmlns:rdf="http://www.w3.org/1999/02/22-rdf-syntax-ns#"
   xmlns:svg="http://www.w3.org/2000/svg"
   xmlns="http://www.w3.org/2000/svg"
   xmlns:xlink="http://www.w3.org/1999/xlink"
   xmlns:sodipodi="http://sodipodi.sourceforge.net/DTD/sodipodi-0.dtd"
   xmlns:inkscape="http://www.inkscape.org/namespaces/inkscape"
   viewBox="0 0 16 16"
   version="1.1"
   id="svg7"
   sodipodi:docname="folder-print.svg"
   inkscape:version="0.92.4 (5da689c313, 2019-01-14)">
  <metadata
     id="metadata11">
    <rdf:RDF>
      <cc:Work
         rdf:about="">
        <dc:format>image/svg+xml</dc:format>
        <dc:type
           rdf:resource="http://purl.org/dc/dcmitype/StillImage" />
      </cc:Work>
    </rdf:RDF>
  </metadata>
  <sodipodi:namedview
     pagecolor="#ffffff"
     bordercolor="#666666"
     borderopacity="1"
     objecttolerance="10"
     gridtolerance="10"
     guidetolerance="10"
     inkscape:pageopacity="0"
     inkscape:pageshadow="2"
     inkscape:window-width="1920"
     inkscape:window-height="1017"
     id="namedview9"
     showgrid="false"
     inkscape:zoom="14.75"
     inkscape:cx="8"
     inkscape:cy="8"
     inkscape:window-x="0"
     inkscape:window-y="0"
     inkscape:window-maximized="1"
     inkscape:current-layer="svg7" />
  <defs
     id="defs3051">
    <linearGradient
       inkscape:collect="always"
       id="linearGradient822">
      <stop
         style="stop-color:#2a7fff;stop-opacity:1"
         offset="0"
         id="stop818" />
      <stop
         style="stop-color:#00d4aa;stop-opacity:1"
         offset="1"
         id="stop820" />
    </linearGradient>
    <style
       type="text/css"
       id="current-color-scheme">
      .ColorScheme-Text {
        color:#eff0f1;
      }
      </style>
    <linearGradient
       inkscape:collect="always"
       xlink:href="#linearGradient822"
       id="linearGradient824"
       x1="2.0677967"
       y1="1038.5995"
       x2="14"
       y2="1050.2605"
       gradientUnits="userSpaceOnUse" />
  </defs>
  <g
     transform="translate(0,-1036.3622)"
     id="g5">
    <path
       style="fill:url(#linearGradient824);fill-opacity:1;stroke:none"
       d="m 3,1038.3622 0,1 0,3 -1,0 0,1 0,5 1,0 2,0 0,1 0,1 6,0 0,-1 0,-1 3,0 0,-1 0,-4 0,-1 -1,0 0,-3 0,-1 z m 1,1 8,0 0,3 -1,0 0,-1 -6,0 0,1 -1,0 z m 1,0 0,1 6,0 0,-1 z m -2,4 10,0 0,4 -1,0 0,-1 -8,0 0,1 -1,0 z m 7,1 0,1 2,0 0,-1 z m -4,4 4,0 0,1 -4,0 z"
       id="rect4145"
       class="ColorScheme-Text" />
  </g>
</svg>
